<svg xmlns="http://www.w3.org/2000/svg" xmlns:xlink="http://www.w3.org/1999/xlink" version="1.1" width="75" height="75" viewBox="0 0 256 256" xml:space="preserve">

<defs>
</defs>
<g style="stroke: none; stroke-width: 0; stroke-dasharray: none; stroke-linecap: butt; stroke-linejoin: miter; stroke-miterlimit: 10; fill: none; fill-rule: nonzero; opacity: 1;" transform="translate(10.860692455603015 127.5019455252918) rotate(-45) scale(1.83 1.83)" >
	<path d="M 63.402 80.226 c -0.138 0 -0.275 -0.028 -0.406 -0.086 c -9.089 -4.036 -15.744 -10.692 -19.782 -19.781 c -3.83 -8.623 -10.143 -14.937 -18.766 -18.766 c -0.301 -0.134 -0.517 -0.407 -0.578 -0.731 c -0.06 -0.324 0.043 -0.657 0.276 -0.89 l 25.598 -25.598 c 0.293 -0.292 0.735 -0.373 1.113 -0.207 c 9.089 4.037 15.744 10.692 19.782 19.782 c 3.829 8.622 10.143 14.936 18.766 18.766 c 0.301 0.134 0.517 0.407 0.577 0.731 c 0.06 0.324 -0.043 0.656 -0.276 0.89 L 64.109 79.933 C 63.918 80.124 63.662 80.226 63.402 80.226 z M 26.573 40.374 c 8.42 4.083 14.629 10.527 18.469 19.172 c 3.737 8.414 9.838 14.629 18.142 18.482 l 24.097 -24.096 c -8.42 -4.083 -14.629 -10.527 -18.469 -19.173 c -3.737 -8.414 -9.839 -14.629 -18.143 -18.483 L 26.573 40.374 z" style="stroke: none; stroke-width: 1; stroke-dasharray: none; stroke-linecap: butt; stroke-linejoin: miter; stroke-miterlimit: 10; fill: rgb(222,209,209); fill-rule: nonzero; opacity: 1;" transform=" matrix(1 0 0 1 0 0) " stroke-linecap="round" />
	<path d="M 1 65.532 c -0.256 0 -0.512 -0.098 -0.707 -0.293 c -0.391 -0.391 -0.391 -1.023 0 -1.414 l 53.759 -53.758 c 0.391 -0.391 1.023 -0.391 1.414 0 s 0.391 1.023 0 1.414 L 1.707 65.239 C 1.512 65.435 1.256 65.532 1 65.532 z" style="stroke: none; stroke-width: 1; stroke-dasharray: none; stroke-linecap: butt; stroke-linejoin: miter; stroke-miterlimit: 10; fill: rgb(222,209,209); fill-rule: nonzero; opacity: 1;" transform=" matrix(1 0 0 1 0 0) " stroke-linecap="round" />
	<path d="M 56.928 48.153 c -0.384 0 -0.749 -0.222 -0.915 -0.594 c -3.829 -8.623 -10.142 -14.937 -18.765 -18.766 c -0.505 -0.224 -0.732 -0.815 -0.508 -1.32 c 0.224 -0.505 0.817 -0.731 1.32 -0.508 c 9.09 4.037 15.746 10.693 19.782 19.782 c 0.224 0.505 -0.004 1.096 -0.508 1.32 C 57.201 48.126 57.063 48.153 56.928 48.153 z" style="stroke: none; stroke-width: 1; stroke-dasharray: none; stroke-linecap: butt; stroke-linejoin: miter; stroke-miterlimit: 10; fill: rgb(222,209,209); fill-rule: nonzero; opacity: 1;" transform=" matrix(1 0 0 1 0 0) " stroke-linecap="round" />
	<path d="M 76.2 67.427 c -0.135 0 -0.273 -0.027 -0.405 -0.086 c -9.089 -4.036 -15.744 -10.691 -19.782 -19.781 c -0.224 -0.505 0.003 -1.096 0.508 -1.32 c 0.507 -0.227 1.096 0.005 1.32 0.508 c 3.83 8.623 10.144 14.937 18.767 18.766 c 0.504 0.225 0.731 0.815 0.508 1.32 C 76.949 67.205 76.584 67.427 76.2 67.427 z" style="stroke: none; stroke-width: 1; stroke-dasharray: none; stroke-linecap: butt; stroke-linejoin: miter; stroke-miterlimit: 10; fill: rgb(222,209,209); fill-rule: nonzero; opacity: 1;" transform=" matrix(1 0 0 1 0 0) " stroke-linecap="round" />
	<path d="M 44.128 60.952 c -0.256 0 -0.512 -0.098 -0.707 -0.293 c -0.391 -0.391 -0.391 -1.023 0 -1.414 L 69.02 33.647 c 0.391 -0.391 1.023 -0.391 1.414 0 s 0.391 1.023 0 1.414 L 44.835 60.659 C 44.64 60.854 44.384 60.952 44.128 60.952 z" style="stroke: none; stroke-width: 1; stroke-dasharray: none; stroke-linecap: butt; stroke-linejoin: miter; stroke-miterlimit: 10; fill: rgb(222,209,209); fill-rule: nonzero; opacity: 1;" transform=" matrix(1 0 0 1 0 0) " stroke-linecap="round" />
</g>
</svg>